<svg width="400" height="400" viewBox="0 0 400 400" fill="none" xmlns="http://www.w3.org/2000/svg">
<rect width="400" height="400" rx="40" fill="#D4A373"/>
<path d="M169.134 150.498C177.514 154.967 180.695 165.402 176.239 173.806C171.784 182.21 161.379 185.401 152.999 180.932C144.619 176.463 141.438 166.028 145.893 157.624C150.349 149.22 160.754 146.03 169.134 150.498Z" fill="#FEFAE0"/>
<path d="M237.59 151.505C233.303 151.505 229.828 154.99 229.828 159.289C229.828 163.588 233.303 167.074 237.59 167.074C241.876 167.074 245.352 163.588 245.352 159.289C245.352 154.99 241.876 151.505 237.59 151.505Z" fill="#FEFAE0"/>
<path d="M226.697 165.595L217.362 178.386L218.567 179.596L231.033 170.053C229.243 168.954 227.749 167.419 226.697 165.595Z" fill="#FEFAE0"/>
<path d="M179.873 100.232C179.848 100.218 179.823 100.204 179.798 100.189L176.296 98.1612C175.885 97.9228 175.358 98.0643 175.12 98.4773L166.951 112.668C166.713 113.081 166.854 113.609 167.266 113.847L178.586 120.402C178.998 120.64 179.524 120.499 179.762 120.086L187.931 105.895C188.169 105.482 188.028 104.954 187.616 104.716L183.4 102.274C183.379 102.263 183.359 102.251 183.339 102.239L179.873 100.232Z" fill="#FEFAE0"/>
<path d="M183.437 96.722L184.662 97.4313L190.038 94.7656L183.411 90.9284L183.437 96.722Z" fill="#FEFAE0"/>
<path fill-rule="evenodd" clip-rule="evenodd" d="M145.457 34C132.753 34 121.541 42.326 117.834 54.5124L84.2833 164.814C80.1175 178.51 78 192.75 78 207.068V289.359C80.0068 287.367 82.4226 285.786 85.1109 284.749C81.4951 282.135 79.1437 277.889 79.1437 273.096C79.1437 265.15 85.6057 258.708 93.5771 258.708C101.548 258.708 108.01 265.15 108.01 273.096C108.01 277.6 105.934 281.622 102.682 284.26C106.914 285.544 110.57 288.148 113.165 291.592V288.044C113.165 278.485 119.711 270.451 128.578 268.151C124.76 264.796 122.351 259.884 122.351 254.411C122.351 244.298 130.575 236.099 140.721 236.099C150.866 236.099 159.09 244.298 159.09 254.411C159.09 259.651 156.882 264.378 153.342 267.715C163.277 269.19 170.899 277.73 170.899 288.044V291.252C172.905 288.139 175.822 285.666 179.274 284.204C176.022 282.135 173.869 278.534 173.869 274.439C173.869 268.022 179.156 262.819 185.678 262.819C192.2 262.819 197.488 268.022 197.488 274.439C197.488 278.272 195.602 281.671 192.694 283.788C195.654 284.828 198.269 286.595 200.325 288.874C201.904 282.261 206.688 276.887 212.95 274.472C209.334 271.858 206.983 267.612 206.983 262.819C206.983 254.873 213.445 248.431 221.416 248.431C229.387 248.431 235.849 254.873 235.849 262.819C235.849 267.324 233.772 271.345 230.521 273.983C235.881 275.609 240.315 279.353 242.843 284.236C245.23 278.808 249.761 274.506 255.387 272.365C251.442 269.549 248.877 264.977 248.877 259.815C248.877 251.258 255.926 244.321 264.622 244.321C273.318 244.321 280.368 251.258 280.368 259.815C280.368 264.666 278.102 268.997 274.555 271.838C283.779 274.6 290.49 283.037 290.49 293.017V294C292.662 289.608 296.401 286.102 300.994 284.186C297.38 281.919 294.988 277.976 294.988 273.491C294.988 266.462 300.863 260.764 308.11 260.764C315.356 260.764 321.231 266.462 321.231 273.491C321.231 277.688 319.136 281.411 315.905 283.729C318.156 284.509 320.228 285.662 322.043 287.112V207.068C322.043 192.75 319.926 178.51 315.76 164.814L282.21 54.5124C278.503 42.326 267.291 34 254.587 34H145.457ZM234.548 86.9001C233.175 84.7173 230.747 83.4328 228.175 83.5286C225.603 83.6244 223.276 85.0861 222.068 87.3651L188.705 150.294C185.843 145.123 181.507 140.695 175.913 137.712C160.492 129.488 141.343 135.359 133.144 150.825C124.944 166.291 130.799 185.495 146.22 193.719C161.641 201.942 180.789 196.071 188.989 180.605L228.977 105.181L248.588 136.347C250.716 139.729 255.175 140.74 258.547 138.606C261.919 136.472 262.928 132 260.8 128.618L234.548 86.9001ZM225.015 159.289C225.015 152.324 230.645 146.678 237.59 146.678C244.535 146.678 250.165 152.324 250.165 159.289C250.165 166.254 244.535 171.901 237.59 171.901C237.257 171.901 236.928 171.888 236.603 171.862L221.229 183.631C220.375 184.285 219.313 184.607 218.24 184.535C217.939 184.515 217.643 184.465 217.357 184.386C217.381 184.64 217.432 184.914 217.518 185.208C217.905 186.533 218.759 187.343 219.694 187.504C220.845 187.703 222.119 187.177 224.232 186.004C224.36 185.933 224.491 185.86 224.626 185.785C225.48 185.307 226.461 184.759 227.452 184.329C228.621 183.821 229.986 183.39 231.488 183.39C234.913 183.39 237.672 184.656 239.951 186.197C241.053 186.942 241.345 188.442 240.602 189.547C239.859 190.653 238.363 190.945 237.261 190.2C235.473 188.991 233.644 188.217 231.488 188.217C230.898 188.217 230.217 188.388 229.365 188.758C228.612 189.085 227.864 189.502 226.994 189.988L226.795 190.098L226.563 190.227C224.676 191.275 221.941 192.789 218.878 192.262C215.6 191.697 213.631 189.071 212.899 186.566C212.396 184.846 212.347 182.706 213.176 180.891C212.758 180.261 212.504 179.53 212.445 178.766C212.364 177.706 212.663 176.652 213.289 175.794L225.022 159.717C225.017 159.575 225.015 159.432 225.015 159.289ZM181.806 84.9267C181.238 84.9273 180.681 85.0779 180.191 85.3634C179.7 85.6489 179.293 86.0591 179.012 86.5527C178.73 87.0463 178.583 87.6058 178.585 88.1746L178.611 93.9288C175.911 92.4305 172.501 93.3724 170.952 96.0637L162.783 110.254C161.216 112.976 162.146 116.456 164.86 118.028L176.179 124.582C178.893 126.154 182.363 125.221 183.93 122.499L192.099 108.309C193.666 105.587 192.737 102.106 190.023 100.535L189.672 100.332L194.837 97.7712C195.359 97.5116 195.801 97.1147 196.117 96.6228C196.432 96.1309 196.609 95.5624 196.627 94.978C196.646 94.3935 196.506 93.8149 196.223 93.3037C195.94 92.7926 195.523 92.3681 195.019 92.0755L183.421 85.36C182.93 85.0757 182.373 84.9262 181.806 84.9267Z" fill="#FEFAE0"/>
<path d="M74.576 361.432C73.04 361.304 71.84 360.808 70.976 359.944C70.112 359.08 69.68 357.992 69.68 356.68C69.68 355.656 69.936 354.584 70.448 353.464L81.296 329.32C81.648 328.52 82.096 327.928 82.64 327.544C83.216 327.16 83.92 326.968 84.752 326.968C85.584 326.968 86.272 327.16 86.816 327.544C87.392 327.928 87.856 328.52 88.208 329.32L99.056 353.464C99.568 354.584 99.824 355.64 99.824 356.632C99.824 357.976 99.392 359.08 98.528 359.944C97.664 360.808 96.448 361.304 94.88 361.432L90.848 352.648H78.608L74.576 361.432ZM88.688 346.6L83.744 334.312L83.072 334.6L84.368 337.816L80.72 346.6H88.688ZM118.057 361.432C115.305 361.432 112.825 360.888 110.617 359.8C108.441 358.68 106.729 357.128 105.481 355.144C104.265 353.16 103.657 350.936 103.657 348.472V332.056C103.657 330.392 104.249 329.128 105.433 328.264C106.649 327.4 108.409 326.968 110.713 326.968V348.472C110.713 350.552 111.369 352.216 112.681 353.464C114.025 354.68 115.817 355.288 118.057 355.288C120.297 355.288 122.073 354.68 123.385 353.464C124.729 352.216 125.401 350.552 125.401 348.472V332.056C125.401 330.392 125.993 329.128 127.177 328.264C128.393 327.4 130.153 326.968 132.457 326.968V348.472C132.457 350.936 131.833 353.16 130.585 355.144C129.369 357.128 127.657 358.68 125.449 359.8C123.273 360.888 120.809 361.432 118.057 361.432ZM142.018 361C141.026 361 140.178 360.696 139.474 360.088C138.802 359.48 138.466 358.712 138.466 357.784V330.616C138.466 329.688 138.802 328.92 139.474 328.312C140.178 327.704 141.026 327.4 142.018 327.4H152.482C155.362 327.4 157.906 327.96 160.114 329.08C162.322 330.168 164.034 331.72 165.25 333.736C166.498 335.752 167.122 338.056 167.122 340.648V347.656C167.122 350.248 166.498 352.568 165.25 354.616C164.034 356.632 162.306 358.2 160.066 359.32C157.858 360.44 155.33 361 152.482 361H142.018ZM152.002 354.952C154.658 354.952 156.658 354.344 158.002 353.128C159.378 351.912 160.066 350.12 160.066 347.752V340.552C160.066 338.216 159.378 336.456 158.002 335.272C156.658 334.056 154.658 333.448 152.002 333.448H145.522V354.952H152.002ZM173.339 332.104C173.339 330.504 173.947 329.256 175.163 328.36C176.411 327.432 178.155 326.968 180.395 326.968V356.296C180.395 357.928 179.771 359.192 178.523 360.088C177.307 360.984 175.579 361.432 173.339 361.432V332.104ZM197.717 333.496H186.149C186.149 329.432 187.989 327.4 191.669 327.4H216.293C216.293 331.464 214.453 333.496 210.773 333.496H204.773V356.344C204.773 358.008 204.165 359.272 202.949 360.136C201.765 361 200.021 361.432 197.717 361.432V333.496ZM232.412 361.432C229.788 361.432 227.372 360.92 225.164 359.896C222.956 358.84 221.196 357.432 219.884 355.672C218.604 353.88 217.964 351.96 217.964 349.912V338.488C217.964 336.44 218.604 334.536 219.884 332.776C221.196 330.984 222.956 329.576 225.164 328.552C227.372 327.496 229.788 326.968 232.412 326.968C235.036 326.968 237.452 327.496 239.66 328.552C241.868 329.576 243.612 330.984 244.892 332.776C246.204 334.536 246.86 336.44 246.86 338.488V349.912C246.86 351.96 246.204 353.88 244.892 355.672C243.612 357.432 241.868 358.84 239.66 359.896C237.452 360.92 235.036 361.432 232.412 361.432ZM232.412 355.288C234.588 355.288 236.364 354.776 237.74 353.752C239.116 352.728 239.804 351.4 239.804 349.768V338.632C239.804 337 239.116 335.672 237.74 334.648C236.364 333.624 234.588 333.112 232.412 333.112C230.236 333.112 228.46 333.624 227.084 334.648C225.708 335.672 225.02 337 225.02 338.632V349.768C225.02 351.4 225.708 352.728 227.084 353.752C228.46 354.776 230.236 355.288 232.412 355.288ZM252.134 330.616C252.134 329.688 252.47 328.92 253.142 328.312C253.846 327.704 254.694 327.4 255.686 327.4H268.31C271.894 327.4 274.646 328.328 276.566 330.184C278.518 332.008 279.494 334.616 279.494 338.008C279.494 339.896 279.11 341.48 278.342 342.76C277.606 344.04 276.454 345.048 274.886 345.784V345.976C277.67 347.224 279.062 349.576 279.062 353.032V356.344C279.062 358.008 278.454 359.272 277.238 360.136C276.054 361 274.31 361.432 272.006 361.432V353.272C272.006 351.672 271.686 350.504 271.046 349.768C270.438 349 269.494 348.616 268.214 348.616H259.094V356.344C259.094 358.008 258.502 359.272 257.318 360.136C256.134 361 254.406 361.432 252.134 361.432V330.616ZM267.926 342.616C269.398 342.616 270.518 342.216 271.286 341.416C272.054 340.616 272.438 339.464 272.438 337.96C272.438 336.392 272.07 335.24 271.334 334.504C270.63 333.768 269.494 333.4 267.926 333.4H259.094V342.616H267.926ZM286.211 332.104C286.211 330.504 286.819 329.256 288.035 328.36C289.283 327.432 291.027 326.968 293.267 326.968V356.296C293.267 357.928 292.643 359.192 291.395 360.088C290.179 360.984 288.451 361.432 286.211 361.432V332.104ZM304.397 361.432C302.861 361.304 301.661 360.808 300.797 359.944C299.933 359.08 299.501 357.992 299.501 356.68C299.501 355.656 299.757 354.584 300.269 353.464L311.117 329.32C311.469 328.52 311.917 327.928 312.461 327.544C313.037 327.16 313.741 326.968 314.573 326.968C315.405 326.968 316.093 327.16 316.637 327.544C317.213 327.928 317.677 328.52 318.029 329.32L328.877 353.464C329.389 354.584 329.645 355.64 329.645 356.632C329.645 357.976 329.213 359.08 328.349 359.944C327.485 360.808 326.269 361.304 324.701 361.432L320.669 352.648H308.429L304.397 361.432ZM318.509 346.6L313.565 334.312L312.893 334.6L314.189 337.816L310.541 346.6H318.509Z" fill="#FEFAE0"/>
</svg>
